<mxfile host="app.diagrams.net" modified="2022-08-25T02:25:06.716Z" agent="5.0 (Macintosh; Intel Mac OS X 10_15_7) AppleWebKit/605.1.15 (KHTML, like Gecko) Version/15.6 Safari/605.1.15" etag="4Q7zgjBJhGavVXHLXBC8" version="20.2.6" type="github">
  <diagram id="AMGXvTiKT9zOosl66n7Z" name="Page-1">
    <mxGraphModel dx="896" dy="496" grid="1" gridSize="10" guides="1" tooltips="1" connect="1" arrows="1" fold="1" page="1" pageScale="1" pageWidth="827" pageHeight="1169" math="0" shadow="0">
      <root>
        <mxCell id="0" />
        <mxCell id="1" parent="0" />
        <mxCell id="OrGjxf3oQy3Yo194MmTC-1" value="Inicio" style="strokeWidth=2;html=1;shape=mxgraph.flowchart.terminator;whiteSpace=wrap;" vertex="1" parent="1">
          <mxGeometry x="236" y="40" width="100" height="40" as="geometry" />
        </mxCell>
        <mxCell id="OrGjxf3oQy3Yo194MmTC-2" style="edgeStyle=orthogonalEdgeStyle;rounded=0;orthogonalLoop=1;jettySize=auto;html=1;exitX=0.5;exitY=1;exitDx=0;exitDy=0;entryX=0.5;entryY=0;entryDx=0;entryDy=0;entryPerimeter=0;" edge="1" parent="1" source="OrGjxf3oQy3Yo194MmTC-3" target="OrGjxf3oQy3Yo194MmTC-10">
          <mxGeometry relative="1" as="geometry" />
        </mxCell>
        <mxCell id="OrGjxf3oQy3Yo194MmTC-3" value="importe" style="shape=parallelogram;html=1;strokeWidth=2;perimeter=parallelogramPerimeter;whiteSpace=wrap;rounded=1;arcSize=12;size=0.23;" vertex="1" parent="1">
          <mxGeometry x="191" y="155" width="190" height="40" as="geometry" />
        </mxCell>
        <mxCell id="OrGjxf3oQy3Yo194MmTC-4" value="Fin" style="strokeWidth=2;html=1;shape=mxgraph.flowchart.terminator;whiteSpace=wrap;" vertex="1" parent="1">
          <mxGeometry x="236" y="520" width="100" height="40" as="geometry" />
        </mxCell>
        <mxCell id="OrGjxf3oQy3Yo194MmTC-5" value="" style="endArrow=classic;html=1;rounded=0;exitX=0.5;exitY=1;exitDx=0;exitDy=0;exitPerimeter=0;entryX=0.5;entryY=0;entryDx=0;entryDy=0;" edge="1" parent="1" source="OrGjxf3oQy3Yo194MmTC-1" target="OrGjxf3oQy3Yo194MmTC-20">
          <mxGeometry width="50" height="50" relative="1" as="geometry">
            <mxPoint x="116" y="240" as="sourcePoint" />
            <mxPoint x="166" y="190" as="targetPoint" />
          </mxGeometry>
        </mxCell>
        <mxCell id="OrGjxf3oQy3Yo194MmTC-6" style="edgeStyle=orthogonalEdgeStyle;rounded=0;orthogonalLoop=1;jettySize=auto;html=1;exitX=0;exitY=0.5;exitDx=0;exitDy=0;exitPerimeter=0;entryX=0.5;entryY=0;entryDx=0;entryDy=0;" edge="1" parent="1" source="OrGjxf3oQy3Yo194MmTC-10" target="OrGjxf3oQy3Yo194MmTC-16">
          <mxGeometry relative="1" as="geometry" />
        </mxCell>
        <mxCell id="OrGjxf3oQy3Yo194MmTC-7" value="SI" style="edgeLabel;html=1;align=center;verticalAlign=middle;resizable=0;points=[];" vertex="1" connectable="0" parent="OrGjxf3oQy3Yo194MmTC-6">
          <mxGeometry x="-0.3495" y="1" relative="1" as="geometry">
            <mxPoint as="offset" />
          </mxGeometry>
        </mxCell>
        <mxCell id="OrGjxf3oQy3Yo194MmTC-8" style="edgeStyle=orthogonalEdgeStyle;rounded=0;orthogonalLoop=1;jettySize=auto;html=1;exitX=1;exitY=0.5;exitDx=0;exitDy=0;exitPerimeter=0;entryX=1;entryY=0.5;entryDx=0;entryDy=0;" edge="1" parent="1" source="OrGjxf3oQy3Yo194MmTC-10" target="OrGjxf3oQy3Yo194MmTC-22">
          <mxGeometry relative="1" as="geometry">
            <mxPoint x="551" y="410" as="targetPoint" />
            <Array as="points">
              <mxPoint x="430" y="255" />
              <mxPoint x="430" y="375" />
            </Array>
          </mxGeometry>
        </mxCell>
        <mxCell id="OrGjxf3oQy3Yo194MmTC-9" value="NO" style="edgeLabel;html=1;align=center;verticalAlign=middle;resizable=0;points=[];" vertex="1" connectable="0" parent="OrGjxf3oQy3Yo194MmTC-8">
          <mxGeometry x="-0.3232" relative="1" as="geometry">
            <mxPoint as="offset" />
          </mxGeometry>
        </mxCell>
        <mxCell id="OrGjxf3oQy3Yo194MmTC-10" value="importe &amp;gt; 3000" style="strokeWidth=2;html=1;shape=mxgraph.flowchart.decision;whiteSpace=wrap;" vertex="1" parent="1">
          <mxGeometry x="218.5" y="220" width="135" height="70" as="geometry" />
        </mxCell>
        <mxCell id="OrGjxf3oQy3Yo194MmTC-11" style="edgeStyle=orthogonalEdgeStyle;rounded=0;orthogonalLoop=1;jettySize=auto;html=1;entryX=0.5;entryY=0;entryDx=0;entryDy=0;entryPerimeter=0;exitX=0.506;exitY=0.857;exitDx=0;exitDy=0;exitPerimeter=0;" edge="1" parent="1" source="OrGjxf3oQy3Yo194MmTC-12" target="OrGjxf3oQy3Yo194MmTC-4">
          <mxGeometry relative="1" as="geometry" />
        </mxCell>
        <mxCell id="OrGjxf3oQy3Yo194MmTC-12" value="descuento, total" style="strokeWidth=2;html=1;shape=mxgraph.flowchart.document2;whiteSpace=wrap;size=0.25;" vertex="1" parent="1">
          <mxGeometry x="209" y="430" width="154" height="70" as="geometry" />
        </mxCell>
        <mxCell id="OrGjxf3oQy3Yo194MmTC-13" value="&lt;div style=&quot;font-style: normal; font-variant-caps: normal; font-weight: normal; letter-spacing: normal; text-align: start; text-indent: 0px; text-transform: none; word-spacing: 0px; -webkit-text-stroke-width: 0px; text-decoration: none; color: rgb(171, 178, 191); background-color: rgb(40, 44, 52); font-family: &amp;quot;Fira Code&amp;quot;, &amp;quot;Menlo for Powerline&amp;quot;, Menlo, Monaco, &amp;quot;Courier New&amp;quot;, monospace; font-size: 12px; line-height: 18px;&quot;&gt;&lt;div&gt;&lt;span style=&quot;color: rgb(127, 132, 142); font-style: italic;&quot;&gt;Mostrar resultados al usuario&lt;/span&gt;&lt;/div&gt;&lt;/div&gt;" style="text;whiteSpace=wrap;html=1;" vertex="1" parent="1">
          <mxGeometry x="381" y="450" width="240" height="30" as="geometry" />
        </mxCell>
        <mxCell id="OrGjxf3oQy3Yo194MmTC-14" value="&lt;div style=&quot;font-style: normal; font-variant-caps: normal; font-weight: normal; letter-spacing: normal; text-align: start; text-indent: 0px; text-transform: none; word-spacing: 0px; -webkit-text-stroke-width: 0px; text-decoration: none; color: rgb(171, 178, 191); background-color: rgb(40, 44, 52); font-family: &amp;quot;Fira Code&amp;quot;, &amp;quot;Menlo for Powerline&amp;quot;, Menlo, Monaco, &amp;quot;Courier New&amp;quot;, monospace; font-size: 12px; line-height: 18px;&quot;&gt;&lt;div&gt;&lt;span style=&quot;color: rgb(127, 132, 142); font-style: italic;&quot;&gt;Desarrollo de operaciones&lt;/span&gt;&lt;/div&gt;&lt;/div&gt;" style="text;whiteSpace=wrap;html=1;" vertex="1" parent="1">
          <mxGeometry x="465" y="310" width="210" height="30" as="geometry" />
        </mxCell>
        <mxCell id="OrGjxf3oQy3Yo194MmTC-15" style="edgeStyle=orthogonalEdgeStyle;rounded=0;orthogonalLoop=1;jettySize=auto;html=1;exitX=0.5;exitY=1;exitDx=0;exitDy=0;entryX=0;entryY=0.5;entryDx=0;entryDy=0;" edge="1" parent="1" source="OrGjxf3oQy3Yo194MmTC-16" target="OrGjxf3oQy3Yo194MmTC-22">
          <mxGeometry relative="1" as="geometry">
            <mxPoint x="136" y="370" as="targetPoint" />
          </mxGeometry>
        </mxCell>
        <mxCell id="OrGjxf3oQy3Yo194MmTC-16" value="descuento = importe * 0.15" style="rounded=1;whiteSpace=wrap;html=1;absoluteArcSize=1;arcSize=14;strokeWidth=2;" vertex="1" parent="1">
          <mxGeometry x="30" y="290" width="212" height="30" as="geometry" />
        </mxCell>
        <mxCell id="OrGjxf3oQy3Yo194MmTC-17" value="&lt;meta charset=&quot;utf-8&quot;&gt;&lt;div style=&quot;font-style: normal; font-variant-caps: normal; font-weight: normal; letter-spacing: normal; text-align: start; text-indent: 0px; text-transform: none; word-spacing: 0px; -webkit-text-stroke-width: 0px; text-decoration: none; color: rgb(171, 178, 191); background-color: rgb(40, 44, 52); font-family: &amp;quot;Fira Code&amp;quot;, &amp;quot;Menlo for Powerline&amp;quot;, Menlo, Monaco, &amp;quot;Courier New&amp;quot;, monospace; font-size: 12px; line-height: 18px;&quot;&gt;&lt;div&gt;&lt;span style=&quot;color: rgb(127, 132, 142); font-style: italic;&quot;&gt;DeclaraciÃ³n de variables e ingrese de datos&lt;/span&gt;&lt;/div&gt;&lt;/div&gt;" style="text;whiteSpace=wrap;html=1;" vertex="1" parent="1">
          <mxGeometry x="400" y="125" width="340" height="30" as="geometry" />
        </mxCell>
        <mxCell id="OrGjxf3oQy3Yo194MmTC-21" style="edgeStyle=orthogonalEdgeStyle;rounded=0;orthogonalLoop=1;jettySize=auto;html=1;exitX=0.5;exitY=1;exitDx=0;exitDy=0;entryX=0.5;entryY=0;entryDx=0;entryDy=0;" edge="1" parent="1" source="OrGjxf3oQy3Yo194MmTC-20" target="OrGjxf3oQy3Yo194MmTC-3">
          <mxGeometry relative="1" as="geometry" />
        </mxCell>
        <mxCell id="OrGjxf3oQy3Yo194MmTC-20" value="descuento = 0" style="rounded=1;whiteSpace=wrap;html=1;absoluteArcSize=1;arcSize=14;strokeWidth=2;" vertex="1" parent="1">
          <mxGeometry x="205" y="100" width="162" height="35" as="geometry" />
        </mxCell>
        <mxCell id="OrGjxf3oQy3Yo194MmTC-23" style="edgeStyle=orthogonalEdgeStyle;rounded=0;orthogonalLoop=1;jettySize=auto;html=1;exitX=0.5;exitY=1;exitDx=0;exitDy=0;entryX=0.5;entryY=0;entryDx=0;entryDy=0;entryPerimeter=0;" edge="1" parent="1" source="OrGjxf3oQy3Yo194MmTC-22" target="OrGjxf3oQy3Yo194MmTC-12">
          <mxGeometry relative="1" as="geometry" />
        </mxCell>
        <mxCell id="OrGjxf3oQy3Yo194MmTC-22" value="total = importe - descuento" style="rounded=1;whiteSpace=wrap;html=1;absoluteArcSize=1;arcSize=14;strokeWidth=2;" vertex="1" parent="1">
          <mxGeometry x="180" y="350" width="212" height="50" as="geometry" />
        </mxCell>
      </root>
    </mxGraphModel>
  </diagram>
</mxfile>
